<?xml version="1.0" encoding="UTF-8"?>
<!DOCTYPE svg PUBLIC "-//W3C//DTD SVG 1.1//EN" "http://www.w3.org/Graphics/SVG/1.1/DTD/svg11.dtd">
<!-- Creator: CorelDRAW 2018 (64 Bit Versão de avaliação) -->
<svg xmlns="http://www.w3.org/2000/svg" xml:space="preserve" width="12px" version="1.1" style="shape-rendering:geometricPrecision; text-rendering:geometricPrecision; image-rendering:optimizeQuality; fill-rule:evenodd; clip-rule:evenodd"
viewBox="0 0 4.39 4.39"
 xmlns:xlink="http://www.w3.org/1999/xlink">
 <defs>
  <style type="text/css">
   <![CDATA[
    .fil0 {fill:#CBD0D3;fill-rule:nonzero}
   ]]>
  </style>
 </defs>
 <g id="Camada_x0020_1">
  <metadata id="CorelCorpID_0Corel-Layer"/>
  <path class="fil0" d="M2.2 0c-1.21,0 -2.2,0.99 -2.2,2.2 0,1.2 0.99,2.19 2.2,2.19 1.2,0 2.19,-0.99 2.19,-2.19 0,-1.21 -0.99,-2.2 -2.19,-2.2zm0 3.84c-0.91,0 -1.65,-0.74 -1.65,-1.64 0,-0.91 0.74,-1.65 1.65,-1.65 0.9,0 1.64,0.74 1.64,1.65 0,0.9 -0.74,1.64 -1.64,1.64zm0.27 -1.75l0.74 0.74 -0.38 0.38 -0.91 -0.9 0 -1.49 0.55 0 0 1.27z"/>
 </g>
</svg>
