<?xml version="1.0" encoding="UTF-8"?>
<!DOCTYPE svg PUBLIC "-//W3C//DTD SVG 1.1//EN" "http://www.w3.org/Graphics/SVG/1.1/DTD/svg11.dtd">
<!-- Creator: CorelDRAW 2018 (64 Bit Versão de avaliação) -->
<svg xmlns="http://www.w3.org/2000/svg" xml:space="preserve" width="90px" version="1.1" style="shape-rendering:geometricPrecision; text-rendering:geometricPrecision; image-rendering:optimizeQuality; fill-rule:evenodd; clip-rule:evenodd"
viewBox="0 0 345.01 87.67"
 xmlns:xlink="http://www.w3.org/1999/xlink">
 <defs>
  <style type="text/css">
   <![CDATA[
    .fil0 {fill:rgb(242, 250, 228);fill-rule:nonzero}
   ]]>
  </style>
 </defs>
 <g id="Camada_x0020_1">
  <metadata id="CorelCorpID_0Corel-Layer"/>
  <path class="fil0" d="M40.51 55.98l0 7.82c0,0.57 -0.26,1.05 -0.73,1.36 -0.47,0.31 -1.02,0.36 -1.54,0.13l-35.31 -15.3c-1.82,-0.79 -2.93,-2.49 -2.93,-4.47l0 -3.37c0,-1.98 1.11,-3.68 2.93,-4.47l35.31 -15.3c0.52,-0.23 1.07,-0.18 1.54,0.13 0.47,0.31 0.73,0.79 0.73,1.36l0 7.89c0,0.69 -0.4,1.27 -1.04,1.52l-23.3 8.97c-0.64,0.25 -1.04,0.83 -1.04,1.51 0,0.69 0.39,1.27 1.03,1.52l23.32 9.19c0.64,0.25 1.03,0.83 1.03,1.51zm25.05 -34.49l-11.27 46.42c-0.39,1.54 -0.72,2.75 -0.99,3.63 -0.29,0.88 -0.72,1.58 -1.29,2.08 -0.58,0.49 -1.42,0.74 -2.52,0.74 -2.74,0 -4.11,-1.18 -4.11,-3.55 0,-0.61 0.27,-2.15 0.81,-4.63l11.23 -46.42c0.6,-2.48 1.16,-4.17 1.7,-5.08 0.55,-0.92 1.59,-1.37 3.14,-1.37 1.35,0 2.38,0.31 3.09,0.96 0.71,0.65 1.07,1.54 1.07,2.67 0,0.82 -0.29,2.34 -0.86,4.55zm10.8 64.13l0 -83.57 51.2 0 0 18.35 -28.99 0 0 14.49 27.33 0 0 17.89 -27.33 0 0 14.14 28.99 0 0 18.7 -51.2 0zm123.56 -80.36l0 24.9c-3.12,-3.47 -6.23,-6 -9.33,-7.62 -3.1,-1.62 -6.43,-2.43 -9.96,-2.43 -6.54,0 -11.84,2.24 -15.89,6.7 -4.06,4.46 -6.08,10.28 -6.08,17.47 0,6.7 2.06,12.26 6.19,16.66 4.13,4.42 9.39,6.62 15.78,6.62 3.53,0 6.86,-0.79 9.96,-2.41 3.1,-1.6 6.21,-4.15 9.33,-7.64l0 24.9c-3.6,1.75 -7.21,3.08 -10.77,3.95 -3.59,0.88 -7.19,1.31 -10.85,1.31 -4.56,0 -8.77,-0.55 -12.63,-1.62 -3.86,-1.09 -7.4,-2.74 -10.64,-4.95 -6.23,-4.18 -10.98,-9.44 -14.26,-15.8 -3.27,-6.37 -4.91,-13.52 -4.91,-21.47 0,-6.39 1.04,-12.19 3.12,-17.43 2.07,-5.24 5.2,-9.98 9.37,-14.24 3.96,-4.07 8.42,-7.11 13.39,-9.14 4.96,-2.01 10.48,-3.02 16.56,-3.02 3.66,0 7.26,0.43 10.85,1.31 3.56,0.87 7.17,2.2 10.77,3.95zm95.41 38.57c0,6.02 -1.11,11.66 -3.31,16.9 -2.2,5.26 -5.42,9.95 -9.65,14.1 -4.26,4.11 -9.13,7.27 -14.61,9.51 -5.47,2.22 -11.16,3.33 -17.04,3.33 -5.98,0 -11.71,-1.11 -17.17,-3.33 -5.45,-2.24 -10.24,-5.4 -14.39,-9.51 -4.31,-4.15 -7.56,-8.86 -9.8,-14.16 -2.23,-5.28 -3.34,-10.89 -3.34,-16.84 0,-5.98 1.11,-11.59 3.34,-16.87 2.24,-5.26 5.49,-9.97 9.8,-14.12 4.15,-4.11 8.94,-7.27 14.39,-9.51 5.46,-2.22 11.19,-3.33 17.17,-3.33 5.92,0 11.65,1.11 17.14,3.33 5.49,2.24 10.33,5.4 14.51,9.51 4.19,4.11 7.39,8.8 9.63,14.1 2.22,5.28 3.33,10.91 3.33,16.89zm-44.65 24.55c6.31,0 11.53,-2.32 15.66,-6.95 4.13,-4.66 6.2,-10.52 6.2,-17.6 0,-6.99 -2.09,-12.83 -6.28,-17.53 -4.19,-4.67 -9.39,-7.01 -15.58,-7.01 -6.31,0 -11.54,2.34 -15.67,6.99 -4.13,4.66 -6.19,10.52 -6.19,17.55 0,7.15 2.02,13.04 6.1,17.64 4.07,4.61 9.33,6.91 15.76,6.91zm91.41 -18.51l-35.31 15.38c-0.52,0.22 -1.07,0.17 -1.54,-0.13 -0.48,-0.31 -0.74,-0.8 -0.74,-1.36l0 -7.82c0,-0.68 0.4,-1.26 1.03,-1.51l23.41 -9.2c0.64,-0.25 1.03,-0.83 1.03,-1.51 0,-0.68 -0.4,-1.27 -1.04,-1.51l-23.39 -9.06c-0.64,-0.24 -1.04,-0.83 -1.04,-1.51l0 -7.74c0,-0.56 0.26,-1.04 0.73,-1.35 0.48,-0.31 1.02,-0.36 1.54,-0.14l35.3 15.25c1.83,0.78 2.94,2.48 2.94,4.47l0 3.27c0,1.98 -1.11,3.68 -2.92,4.47z"/>
 </g>
</svg>
