<?xml version="1.0" encoding="UTF-8"?>
<!DOCTYPE svg PUBLIC "-//W3C//DTD SVG 1.1//EN" "http://www.w3.org/Graphics/SVG/1.1/DTD/svg11.dtd">
<!-- Creator: CorelDRAW 2018 (64 Bit Versão de avaliação) -->
<svg xmlns="http://www.w3.org/2000/svg" xml:space="preserve" width="25px" height="42px" version="1.1" style="shape-rendering:geometricPrecision; text-rendering:geometricPrecision; image-rendering:optimizeQuality; fill-rule:evenodd; clip-rule:evenodd"
viewBox="0 0 0.36 0.61"
 xmlns:xlink="http://www.w3.org/1999/xlink">
 <defs>
  <style type="text/css">
   <![CDATA[
    .fil0 {fill:#202124;fill-rule:nonzero}
   ]]>
  </style>
 </defs>
 <g id="Camada_x0020_1">
  <metadata id="CorelCorpID_0Corel-Layer"/>
  <path class="fil0" d="M0 0.3l0 0c0,-0.02 0.01,-0.03 0.02,-0.04l0.24 -0.24c0.03,-0.03 0.06,-0.03 0.09,0 0.01,0.01 0.01,0.03 0.01,0.04 0,0.02 0,0.03 -0.01,0.04l-0.2 0.2 0.2 0.2c0.01,0.02 0.01,0.03 0.01,0.05 0,0.01 0,0.03 -0.01,0.04 -0.02,0.01 -0.03,0.02 -0.05,0.02 -0.01,0 -0.03,-0.01 -0.04,-0.02l-0.24 -0.24c-0.01,-0.02 -0.02,-0.03 -0.02,-0.05l0 0z"/>
 </g>
</svg>
